<mxfile host="app.diagrams.net" modified="2022-11-02T13:17:42.090Z" agent="5.0 (X11; Linux x86_64) AppleWebKit/537.36 (KHTML, like Gecko) Chrome/98.0.4758.102 Safari/537.36" etag="unofScMjjPT_9D_rNX8Q" version="20.5.1" type="github">
  <diagram id="CM5r0V0yMCtf2sxqWUX7" name="Page-1">
    <mxGraphModel dx="2988" dy="1288" grid="1" gridSize="20" guides="1" tooltips="1" connect="1" arrows="1" fold="1" page="0" pageScale="1" pageWidth="827" pageHeight="1169" math="0" shadow="0">
      <root>
        <mxCell id="0" />
        <mxCell id="1" parent="0" />
        <mxCell id="0qbXLlaw61yAoVdNJTFS-60" value="&lt;font&gt;POST BUILD HOOK&lt;br&gt;LOAD CONFOTOOLBOX&lt;br&gt;&lt;/font&gt;" style="rounded=0;whiteSpace=wrap;html=1;strokeColor=none;fontFamily=Montserrat;fontSource=https%3A%2F%2Ffonts.googleapis.com%2Fcss%3Ffamily%3DMontserrat;fontSize=16;fontColor=#6963C5;fillColor=#CCCCFF;fillStyle=hatch;strokeWidth=1;labelPosition=center;verticalLabelPosition=top;align=left;verticalAlign=bottom;fontStyle=1" parent="1" vertex="1">
          <mxGeometry x="-60" y="540" width="620" height="700" as="geometry" />
        </mxCell>
        <mxCell id="0qbXLlaw61yAoVdNJTFS-61" value="&lt;font&gt;BUILDSHOT&lt;/font&gt;" style="rounded=0;whiteSpace=wrap;html=1;strokeColor=none;fontFamily=Montserrat;fontSource=https%3A%2F%2Ffonts.googleapis.com%2Fcss%3Ffamily%3DMontserrat;fontSize=16;fontColor=#6963C5;fillColor=#CCCCFF;fillStyle=hatch;strokeWidth=1;labelPosition=center;verticalLabelPosition=top;align=left;verticalAlign=bottom;fontStyle=1" parent="1" vertex="1">
          <mxGeometry x="-60" y="151" width="620" height="309" as="geometry" />
        </mxCell>
        <mxCell id="0qbXLlaw61yAoVdNJTFS-62" value="" style="ellipse;html=1;shape=startState;fillColor=#23445D;strokeColor=#23445d;aspect=fixed;" parent="1" vertex="1">
          <mxGeometry x="140" y="25" width="50" height="50" as="geometry" />
        </mxCell>
        <mxCell id="0qbXLlaw61yAoVdNJTFS-63" value="" style="ellipse;html=1;shape=endState;fillColor=#23445D;strokeColor=#23445d;aspect=fixed;" parent="1" vertex="1">
          <mxGeometry x="140" y="1380" width="50" height="50" as="geometry" />
        </mxCell>
        <mxCell id="0qbXLlaw61yAoVdNJTFS-64" value="&lt;font color=&quot;#413565&quot;&gt;A Published File exists?&lt;/font&gt;" style="strokeWidth=2;html=1;shape=mxgraph.flowchart.decision;whiteSpace=wrap;strokeColor=#10739e;fontFamily=Lato;fontSource=https%3A%2F%2Ffonts.googleapis.com%2Fcss%3Ffamily%3DLato;fillColor=#b1ddf0;aspect=fixed;fontStyle=1" parent="1" vertex="1">
          <mxGeometry x="90" y="724" width="150" height="150" as="geometry" />
        </mxCell>
        <mxCell id="0qbXLlaw61yAoVdNJTFS-66" value="" style="strokeWidth=2;html=1;shape=mxgraph.flowchart.decision;whiteSpace=wrap;strokeColor=#10739e;fontFamily=Lato;fontSource=https%3A%2F%2Ffonts.googleapis.com%2Fcss%3Ffamily%3DLato;fillColor=#b1ddf0;aspect=fixed;" parent="1" vertex="1">
          <mxGeometry x="90" y="1067" width="150" height="150" as="geometry" />
        </mxCell>
        <mxCell id="0qbXLlaw61yAoVdNJTFS-67" style="edgeStyle=orthogonalEdgeStyle;rounded=0;orthogonalLoop=1;jettySize=auto;html=1;entryX=0.5;entryY=0;entryDx=0;entryDy=0;entryPerimeter=0;strokeColor=#23445D;strokeWidth=2;fontFamily=Montserrat;fontSource=https%3A%2F%2Ffonts.googleapis.com%2Fcss%3Ffamily%3DMontserrat;fontColor=#413565;fillColor=#bac8d3;endArrow=block;endFill=1;" parent="1" source="0qbXLlaw61yAoVdNJTFS-64" target="0qbXLlaw61yAoVdNJTFS-66" edge="1">
          <mxGeometry relative="1" as="geometry" />
        </mxCell>
        <mxCell id="0qbXLlaw61yAoVdNJTFS-68" value="NO" style="edgeLabel;html=1;align=center;verticalAlign=middle;resizable=0;points=[];fontFamily=Montserrat;fontColor=#413565;fontStyle=1;fontSize=14;" parent="0qbXLlaw61yAoVdNJTFS-67" vertex="1" connectable="0">
          <mxGeometry x="-0.8435" y="-2" relative="1" as="geometry">
            <mxPoint x="2" y="10" as="offset" />
          </mxGeometry>
        </mxCell>
        <mxCell id="0qbXLlaw61yAoVdNJTFS-69" style="edgeStyle=orthogonalEdgeStyle;rounded=0;orthogonalLoop=1;jettySize=auto;html=1;entryX=1;entryY=0.5;entryDx=0;entryDy=0;entryPerimeter=0;strokeColor=#23445D;strokeWidth=2;fontFamily=Montserrat;fontSource=https%3A%2F%2Ffonts.googleapis.com%2Fcss%3Ffamily%3DMontserrat;fontSize=16;fontColor=#6963C5;exitX=0.5;exitY=1;exitDx=0;exitDy=0;endArrow=block;endFill=1;" parent="1" source="0qbXLlaw61yAoVdNJTFS-70" target="0qbXLlaw61yAoVdNJTFS-66" edge="1">
          <mxGeometry relative="1" as="geometry" />
        </mxCell>
        <mxCell id="0qbXLlaw61yAoVdNJTFS-70" value="&lt;font color=&quot;#413565&quot;&gt;Replace the Actual ConfoToolBoxPath, that is currently set at the Asset level, by the existing one at the Shot level&lt;/font&gt;" style="rounded=1;whiteSpace=wrap;html=1;absoluteArcSize=1;arcSize=14;strokeWidth=2;strokeColor=#6963C5;fillColor=#CCCCFF;fontFamily=Lato;fontSource=https%3A%2F%2Ffonts.googleapis.com%2Fcss%3Ffamily%3DLato;fontStyle=1;aspect=fixed;spacing=10;" parent="1" vertex="1">
          <mxGeometry x="330" y="920" width="200" height="100" as="geometry" />
        </mxCell>
        <mxCell id="0qbXLlaw61yAoVdNJTFS-71" value="" style="edgeStyle=orthogonalEdgeStyle;rounded=0;orthogonalLoop=1;jettySize=auto;html=1;entryX=0.5;entryY=0;entryDx=0;entryDy=0;strokeColor=#23445D;strokeWidth=2;fontFamily=Montserrat;fontSource=https%3A%2F%2Ffonts.googleapis.com%2Fcss%3Ffamily%3DMontserrat;fontColor=#413565;fillColor=#bac8d3;endArrow=block;endFill=1;" parent="1" source="0qbXLlaw61yAoVdNJTFS-64" target="0qbXLlaw61yAoVdNJTFS-70" edge="1">
          <mxGeometry relative="1" as="geometry">
            <mxPoint x="224.99999999999955" y="909.0588235294117" as="sourcePoint" />
            <mxPoint x="404.99999999999955" y="1114.9999999999995" as="targetPoint" />
          </mxGeometry>
        </mxCell>
        <mxCell id="0qbXLlaw61yAoVdNJTFS-72" value="YES" style="edgeLabel;html=1;align=center;verticalAlign=middle;resizable=0;points=[];fontFamily=Montserrat;fontColor=#413565;fontStyle=1;fontSize=14;spacingTop=0;" parent="0qbXLlaw61yAoVdNJTFS-71" vertex="1" connectable="0">
          <mxGeometry x="-0.6301" y="5" relative="1" as="geometry">
            <mxPoint x="-27" y="5" as="offset" />
          </mxGeometry>
        </mxCell>
        <mxCell id="0qbXLlaw61yAoVdNJTFS-73" value="POST BUILD SHOT HOOK" style="text;html=1;align=left;verticalAlign=middle;resizable=0;points=[];autosize=1;strokeColor=none;fillColor=none;fontSize=24;fontFamily=Montserrat;fontColor=#23445D;fontStyle=1" parent="1" vertex="1">
          <mxGeometry x="215" y="20" width="340" height="40" as="geometry" />
        </mxCell>
        <mxCell id="0qbXLlaw61yAoVdNJTFS-74" value="LOAD EXISTING CONFO TOOL BOX" style="text;html=1;align=left;verticalAlign=middle;resizable=0;points=[];autosize=1;strokeColor=none;fillColor=none;fontSize=16;fontFamily=Montserrat;fontColor=#23445D;fontStyle=0" parent="1" vertex="1">
          <mxGeometry x="217" y="40" width="320" height="40" as="geometry" />
        </mxCell>
        <mxCell id="0qbXLlaw61yAoVdNJTFS-76" value="" style="edgeStyle=orthogonalEdgeStyle;rounded=0;orthogonalLoop=1;jettySize=auto;html=1;strokeColor=#23445D;strokeWidth=2;fontFamily=Montserrat;fontSource=https%3A%2F%2Ffonts.googleapis.com%2Fcss%3Ffamily%3DMontserrat;fontColor=#413565;fillColor=#bac8d3;endArrow=block;endFill=1;entryX=0.5;entryY=0;entryDx=0;entryDy=0;" parent="1" source="0qbXLlaw61yAoVdNJTFS-66" target="0qbXLlaw61yAoVdNJTFS-63" edge="1">
          <mxGeometry relative="1" as="geometry">
            <mxPoint x="164.99999999999955" y="1114" as="sourcePoint" />
            <mxPoint x="165" y="1316.9999999999995" as="targetPoint" />
          </mxGeometry>
        </mxCell>
        <mxCell id="0qbXLlaw61yAoVdNJTFS-77" value="&lt;font color=&quot;#413565&quot;&gt;&lt;b&gt;&lt;i&gt;Build Shot other Processes...&lt;br&gt;&lt;/i&gt;&lt;/b&gt;&lt;/font&gt;" style="rounded=1;whiteSpace=wrap;html=1;absoluteArcSize=1;arcSize=14;strokeWidth=2;strokeColor=#6963C5;fillColor=#CCCCFF;fontFamily=Lato;fontSource=https%3A%2F%2Ffonts.googleapis.com%2Fcss%3Ffamily%3DLato;fontStyle=0;aspect=fixed;" parent="1" vertex="1">
          <mxGeometry x="65" y="188" width="200" height="100" as="geometry" />
        </mxCell>
        <mxCell id="0qbXLlaw61yAoVdNJTFS-78" value="" style="edgeStyle=orthogonalEdgeStyle;rounded=0;orthogonalLoop=1;jettySize=auto;html=1;strokeColor=#23445D;strokeWidth=2;fontFamily=Montserrat;fontSource=https%3A%2F%2Ffonts.googleapis.com%2Fcss%3Ffamily%3DMontserrat;fontColor=#413565;fillColor=#bac8d3;endArrow=block;endFill=1;" parent="1" source="0qbXLlaw61yAoVdNJTFS-62" target="0qbXLlaw61yAoVdNJTFS-77" edge="1">
          <mxGeometry relative="1" as="geometry" />
        </mxCell>
        <mxCell id="0qbXLlaw61yAoVdNJTFS-83" value="&lt;font color=&quot;#413565&quot;&gt;Get the last ConfoToolBox published file for the given shot&lt;/font&gt;" style="rounded=1;whiteSpace=wrap;html=1;absoluteArcSize=1;arcSize=14;strokeWidth=2;strokeColor=#6963C5;fillColor=#CCCCFF;fontFamily=Lato;fontSource=https%3A%2F%2Ffonts.googleapis.com%2Fcss%3Ffamily%3DLato;fontStyle=1;aspect=fixed;spacing=10;" parent="1" vertex="1">
          <mxGeometry x="65" y="577" width="200" height="100" as="geometry" />
        </mxCell>
        <mxCell id="0qbXLlaw61yAoVdNJTFS-85" style="edgeStyle=orthogonalEdgeStyle;rounded=0;orthogonalLoop=1;jettySize=auto;html=1;entryX=0.5;entryY=0;entryDx=0;entryDy=0;entryPerimeter=0;strokeColor=#23445D;strokeWidth=2;fontFamily=Montserrat;fontSource=https%3A%2F%2Ffonts.googleapis.com%2Fcss%3Ffamily%3DMontserrat;fontSize=16;fontColor=#333333;startArrow=none;endArrow=block;endFill=1;" parent="1" source="0qbXLlaw61yAoVdNJTFS-83" target="0qbXLlaw61yAoVdNJTFS-64" edge="1">
          <mxGeometry relative="1" as="geometry" />
        </mxCell>
        <mxCell id="0qbXLlaw61yAoVdNJTFS-116" style="edgeStyle=orthogonalEdgeStyle;rounded=0;orthogonalLoop=1;jettySize=auto;html=1;entryX=0;entryY=0.5;entryDx=0;entryDy=0;entryPerimeter=0;strokeColor=#23445D;strokeWidth=2;dashed=1;dashPattern=1 2;endArrow=none;endFill=0;" parent="1" source="0qbXLlaw61yAoVdNJTFS-87" target="0qbXLlaw61yAoVdNJTFS-115" edge="1">
          <mxGeometry relative="1" as="geometry" />
        </mxCell>
        <mxCell id="0qbXLlaw61yAoVdNJTFS-117" style="edgeStyle=orthogonalEdgeStyle;rounded=0;orthogonalLoop=1;jettySize=auto;html=1;entryX=0.5;entryY=0;entryDx=0;entryDy=0;strokeColor=#23445D;strokeWidth=2;endArrow=block;endFill=1;" parent="1" source="0qbXLlaw61yAoVdNJTFS-87" target="0qbXLlaw61yAoVdNJTFS-83" edge="1">
          <mxGeometry relative="1" as="geometry" />
        </mxCell>
        <mxCell id="0qbXLlaw61yAoVdNJTFS-87" value="&lt;font color=&quot;#413565&quot;&gt;&lt;b&gt;Build the CustomRender Node&lt;br&gt;&lt;/b&gt;&lt;/font&gt;" style="rounded=1;whiteSpace=wrap;html=1;absoluteArcSize=1;arcSize=14;strokeWidth=2;strokeColor=#6963C5;fillColor=#CCCCFF;fontFamily=Lato;fontSource=https%3A%2F%2Ffonts.googleapis.com%2Fcss%3Ffamily%3DLato;fontStyle=0;aspect=fixed;spacing=10;" parent="1" vertex="1">
          <mxGeometry x="65" y="330" width="200" height="100" as="geometry" />
        </mxCell>
        <mxCell id="0qbXLlaw61yAoVdNJTFS-88" value="" style="edgeStyle=orthogonalEdgeStyle;rounded=0;orthogonalLoop=1;jettySize=auto;html=1;entryX=0.5;entryY=0;entryDx=0;entryDy=0;endArrow=block;strokeWidth=2;strokeColor=#23445D;endFill=1;" parent="1" source="0qbXLlaw61yAoVdNJTFS-77" target="0qbXLlaw61yAoVdNJTFS-87" edge="1">
          <mxGeometry relative="1" as="geometry">
            <mxPoint x="165" y="273" as="sourcePoint" />
            <mxPoint x="165" y="720" as="targetPoint" />
          </mxGeometry>
        </mxCell>
        <mxCell id="0qbXLlaw61yAoVdNJTFS-103" value="" style="edgeStyle=orthogonalEdgeStyle;rounded=0;orthogonalLoop=1;jettySize=auto;html=1;strokeWidth=2;strokeColor=#23445D;endArrow=block;endFill=1;" parent="1" source="0qbXLlaw61yAoVdNJTFS-89" target="0qbXLlaw61yAoVdNJTFS-94" edge="1">
          <mxGeometry relative="1" as="geometry" />
        </mxCell>
        <mxCell id="0qbXLlaw61yAoVdNJTFS-89" value="&lt;b style=&quot;color: rgb(65, 53, 101);&quot;&gt;&lt;span&gt;The artist tweaks the&lt;br&gt;ConfoToolBox&lt;br&gt;&lt;/span&gt;&lt;/b&gt;" style="verticalLabelPosition=middle;verticalAlign=middle;html=1;shape=trapezoid;perimeter=trapezoidPerimeter;whiteSpace=wrap;size=0.23;arcSize=14;flipV=1;labelPosition=center;align=center;fontFamily=Lato;fillColor=#fad7ac;strokeColor=#b46504;rounded=1;strokeWidth=2;fontSource=https%3A%2F%2Ffonts.googleapis.com%2Fcss%3Ffamily%3DLato;fontStyle=0;" parent="1" vertex="1">
          <mxGeometry x="-739.99" y="675" width="200" height="100" as="geometry" />
        </mxCell>
        <mxCell id="0qbXLlaw61yAoVdNJTFS-104" value="" style="edgeStyle=orthogonalEdgeStyle;rounded=0;orthogonalLoop=1;jettySize=auto;html=1;strokeWidth=2;strokeColor=#23445D;endArrow=block;endFill=1;" parent="1" source="0qbXLlaw61yAoVdNJTFS-94" target="0qbXLlaw61yAoVdNJTFS-97" edge="1">
          <mxGeometry relative="1" as="geometry" />
        </mxCell>
        <mxCell id="0qbXLlaw61yAoVdNJTFS-94" value="&lt;b style=&quot;color: rgb(65, 53, 101);&quot;&gt;&lt;span&gt;The artist click on&lt;br&gt;the&amp;nbsp; PUBLISH btn&lt;br&gt;&lt;/span&gt;&lt;/b&gt;" style="verticalLabelPosition=middle;verticalAlign=middle;html=1;shape=trapezoid;perimeter=trapezoidPerimeter;whiteSpace=wrap;size=0.23;arcSize=14;flipV=1;labelPosition=center;align=center;fontFamily=Lato;fillColor=#fad7ac;strokeColor=#b46504;rounded=1;strokeWidth=2;fontSource=https%3A%2F%2Ffonts.googleapis.com%2Fcss%3Ffamily%3DLato;fontStyle=0;" parent="1" vertex="1">
          <mxGeometry x="-739.99" y="840" width="200" height="100" as="geometry" />
        </mxCell>
        <mxCell id="0qbXLlaw61yAoVdNJTFS-101" value="" style="edgeStyle=orthogonalEdgeStyle;rounded=0;orthogonalLoop=1;jettySize=auto;html=1;strokeWidth=2;strokeColor=#23445D;endArrow=block;endFill=1;" parent="1" source="0qbXLlaw61yAoVdNJTFS-95" target="0qbXLlaw61yAoVdNJTFS-96" edge="1">
          <mxGeometry relative="1" as="geometry" />
        </mxCell>
        <mxCell id="0qbXLlaw61yAoVdNJTFS-95" value="&lt;b style=&quot;color: rgb(65, 53, 101);&quot;&gt;&lt;span&gt;The artist click on&lt;br&gt;the EDIT btn&lt;br&gt;&lt;/span&gt;&lt;/b&gt;" style="verticalLabelPosition=middle;verticalAlign=middle;html=1;shape=trapezoid;perimeter=trapezoidPerimeter;whiteSpace=wrap;size=0.23;arcSize=14;flipV=1;labelPosition=center;align=center;fontFamily=Lato;fillColor=#fad7ac;strokeColor=#b46504;rounded=1;strokeWidth=2;fontSource=https%3A%2F%2Ffonts.googleapis.com%2Fcss%3Ffamily%3DLato;fontStyle=0;" parent="1" vertex="1">
          <mxGeometry x="-739.99" y="345" width="200" height="100" as="geometry" />
        </mxCell>
        <mxCell id="0qbXLlaw61yAoVdNJTFS-102" value="" style="edgeStyle=orthogonalEdgeStyle;rounded=0;orthogonalLoop=1;jettySize=auto;html=1;strokeWidth=2;strokeColor=#23445D;endArrow=block;endFill=1;" parent="1" source="0qbXLlaw61yAoVdNJTFS-96" target="0qbXLlaw61yAoVdNJTFS-89" edge="1">
          <mxGeometry relative="1" as="geometry" />
        </mxCell>
        <mxCell id="0qbXLlaw61yAoVdNJTFS-96" value="&lt;font color=&quot;#413565&quot;&gt;&lt;b&gt;&lt;span&gt;Transform the LiveGroup, that are stored at the Asset level (unique), to Group in oder to make it editable&lt;br&gt;&lt;/span&gt;&lt;/b&gt;&lt;/font&gt;" style="rounded=1;whiteSpace=wrap;html=1;absoluteArcSize=1;arcSize=14;strokeWidth=2;strokeColor=#6963C5;fillColor=#CCCCFF;fontFamily=Lato;fontSource=https%3A%2F%2Ffonts.googleapis.com%2Fcss%3Ffamily%3DLato;fontStyle=0;aspect=fixed;spacing=10;" parent="1" vertex="1">
          <mxGeometry x="-740" y="510" width="200" height="100" as="geometry" />
        </mxCell>
        <mxCell id="0qbXLlaw61yAoVdNJTFS-105" value="" style="edgeStyle=orthogonalEdgeStyle;rounded=0;orthogonalLoop=1;jettySize=auto;html=1;strokeWidth=2;strokeColor=#23445D;endArrow=block;endFill=1;" parent="1" source="0qbXLlaw61yAoVdNJTFS-97" target="0qbXLlaw61yAoVdNJTFS-99" edge="1">
          <mxGeometry relative="1" as="geometry" />
        </mxCell>
        <mxCell id="0qbXLlaw61yAoVdNJTFS-120" style="edgeStyle=orthogonalEdgeStyle;rounded=0;orthogonalLoop=1;jettySize=auto;html=1;entryX=0;entryY=0.5;entryDx=0;entryDy=0;entryPerimeter=0;strokeColor=#23445D;strokeWidth=2;endArrow=none;endFill=0;dashed=1;dashPattern=1 2;" parent="1" source="0qbXLlaw61yAoVdNJTFS-97" target="0qbXLlaw61yAoVdNJTFS-119" edge="1">
          <mxGeometry relative="1" as="geometry" />
        </mxCell>
        <mxCell id="0qbXLlaw61yAoVdNJTFS-97" value="&lt;font color=&quot;#413565&quot;&gt;&lt;b&gt;&lt;span&gt;Publish the Group at the Shot level, under the current shot (that make it not unique) then switch it to a LiveGroup&lt;br&gt;&lt;/span&gt;&lt;/b&gt;&lt;/font&gt;" style="rounded=1;whiteSpace=wrap;html=1;absoluteArcSize=1;arcSize=14;strokeWidth=2;strokeColor=#6963C5;fillColor=#CCCCFF;fontFamily=Lato;fontSource=https%3A%2F%2Ffonts.googleapis.com%2Fcss%3Ffamily%3DLato;fontStyle=0;aspect=fixed;spacing=10;" parent="1" vertex="1">
          <mxGeometry x="-740" y="1005" width="200" height="100" as="geometry" />
        </mxCell>
        <mxCell id="0qbXLlaw61yAoVdNJTFS-100" style="edgeStyle=orthogonalEdgeStyle;rounded=0;orthogonalLoop=1;jettySize=auto;html=1;entryX=0.5;entryY=0;entryDx=0;entryDy=0;strokeWidth=2;strokeColor=#23445D;startArrow=none;endArrow=block;endFill=1;" parent="1" source="0qbXLlaw61yAoVdNJTFS-113" target="0qbXLlaw61yAoVdNJTFS-95" edge="1">
          <mxGeometry relative="1" as="geometry" />
        </mxCell>
        <mxCell id="0qbXLlaw61yAoVdNJTFS-98" value="" style="ellipse;html=1;shape=startState;fillColor=#23445D;strokeColor=#23445d;aspect=fixed;" parent="1" vertex="1">
          <mxGeometry x="-664.99" y="40" width="50" height="50" as="geometry" />
        </mxCell>
        <mxCell id="0qbXLlaw61yAoVdNJTFS-99" value="" style="ellipse;html=1;shape=endState;fillColor=#23445D;strokeColor=#23445d;aspect=fixed;" parent="1" vertex="1">
          <mxGeometry x="-664.99" y="1195.5" width="50" height="50" as="geometry" />
        </mxCell>
        <mxCell id="0qbXLlaw61yAoVdNJTFS-107" value="CONFO TOOL BOX" style="text;html=1;align=left;verticalAlign=middle;resizable=0;points=[];autosize=1;strokeColor=none;fillColor=none;fontSize=24;fontFamily=Montserrat;fontColor=#23445D;fontStyle=1" parent="1" vertex="1">
          <mxGeometry x="-600" y="45" width="260" height="40" as="geometry" />
        </mxCell>
        <mxCell id="0qbXLlaw61yAoVdNJTFS-108" value="AN ARTIST NEED A TWEAK ON THE SHOT" style="text;html=1;align=left;verticalAlign=middle;resizable=0;points=[];autosize=1;strokeColor=none;fillColor=none;fontSize=16;fontFamily=Montserrat;fontColor=#23445D;fontStyle=0" parent="1" vertex="1">
          <mxGeometry x="-600" y="65" width="380" height="40" as="geometry" />
        </mxCell>
        <mxCell id="0qbXLlaw61yAoVdNJTFS-113" value="&lt;b style=&quot;color: rgb(65, 53, 101);&quot;&gt;&lt;span&gt;Go into the CustomRender Node and find the ConfoToolBox node&lt;br&gt;&lt;/span&gt;&lt;/b&gt;" style="verticalLabelPosition=middle;verticalAlign=middle;html=1;shape=trapezoid;perimeter=trapezoidPerimeter;whiteSpace=wrap;size=0.23;arcSize=14;flipV=1;labelPosition=center;align=center;fontFamily=Lato;fillColor=#fad7ac;strokeColor=#b46504;rounded=1;strokeWidth=2;fontSource=https%3A%2F%2Ffonts.googleapis.com%2Fcss%3Ffamily%3DLato;fontStyle=0;spacing=20;" parent="1" vertex="1">
          <mxGeometry x="-740" y="180" width="200" height="100" as="geometry" />
        </mxCell>
        <mxCell id="0qbXLlaw61yAoVdNJTFS-114" value="" style="edgeStyle=orthogonalEdgeStyle;rounded=0;orthogonalLoop=1;jettySize=auto;html=1;entryX=0.5;entryY=0;entryDx=0;entryDy=0;strokeWidth=2;strokeColor=#23445D;endArrow=block;endFill=1;" parent="1" source="0qbXLlaw61yAoVdNJTFS-98" target="0qbXLlaw61yAoVdNJTFS-113" edge="1">
          <mxGeometry relative="1" as="geometry">
            <mxPoint x="-639.9899999999998" y="90" as="sourcePoint" />
            <mxPoint x="-639.9950000000003" y="362" as="targetPoint" />
          </mxGeometry>
        </mxCell>
        <mxCell id="0qbXLlaw61yAoVdNJTFS-123" style="edgeStyle=orthogonalEdgeStyle;rounded=0;orthogonalLoop=1;jettySize=auto;html=1;entryX=0;entryY=0.5;entryDx=0;entryDy=0;entryPerimeter=0;dashed=1;dashPattern=1 2;strokeColor=#23445D;strokeWidth=2;fontSize=10;endArrow=none;endFill=0;" parent="1" source="0qbXLlaw61yAoVdNJTFS-115" target="0qbXLlaw61yAoVdNJTFS-121" edge="1">
          <mxGeometry relative="1" as="geometry" />
        </mxCell>
        <mxCell id="0qbXLlaw61yAoVdNJTFS-115" value="&lt;b style=&quot;color: rgb(65, 53, 101);&quot;&gt;&lt;span&gt;The CustomRender Node contain the ConfoToolBox Node that his&amp;nbsp; path is set at the Asset level (unique)&lt;/span&gt;&lt;/b&gt;" style="shape=note;size=20;whiteSpace=wrap;html=1;fontFamily=Lato;fillColor=#fff2cc;strokeColor=#d6b656;rounded=1;arcSize=14;strokeWidth=2;fontSource=https%3A%2F%2Ffonts.googleapis.com%2Fcss%3Ffamily%3DLato;fontStyle=0;spacing=10;" parent="1" vertex="1">
          <mxGeometry x="380" y="305" width="150" height="150" as="geometry" />
        </mxCell>
        <mxCell id="0qbXLlaw61yAoVdNJTFS-119" value="&lt;font color=&quot;#413565&quot;&gt;&lt;b&gt;{PROD_ROOT}/assets/Library/setupTurn/&lt;br&gt;light/light_lighting/publish/katana/&lt;br&gt;Library-setupTurn-toolbox-light_lighting-last.katana&lt;/b&gt;&lt;/font&gt;" style="shape=note;size=20;html=1;fontFamily=Lato;fillColor=#fff2cc;strokeColor=#d6b656;rounded=1;arcSize=14;strokeWidth=2;fontSource=https%3A%2F%2Ffonts.googleapis.com%2Fcss%3Ffamily%3DLato;fontStyle=0;spacing=10;" parent="1" vertex="1">
          <mxGeometry x="-420" y="995" width="300" height="120" as="geometry" />
        </mxCell>
        <mxCell id="0qbXLlaw61yAoVdNJTFS-121" value="&lt;font color=&quot;#413565&quot;&gt;&lt;b&gt;{PROD_ROOT}/assets/Library/setupTurn/&lt;br&gt;light/light_lighting/publish/katana/&lt;br&gt;Library-setupTurn-toolbox-light_lighting-last.katana&lt;/b&gt;&lt;/font&gt;" style="shape=note;size=20;html=1;fontFamily=Lato;fillColor=#fff2cc;strokeColor=#d6b656;rounded=1;arcSize=14;strokeWidth=2;fontSource=https%3A%2F%2Ffonts.googleapis.com%2Fcss%3Ffamily%3DLato;fontStyle=0;spacing=10;" parent="1" vertex="1">
          <mxGeometry x="640" y="320" width="300" height="120" as="geometry" />
        </mxCell>
        <mxCell id="RptCFL0FbpW7rhIRfFGB-10" value="" style="ellipse;html=1;shape=startState;fillColor=#23445D;strokeColor=#23445d;aspect=fixed;" vertex="1" parent="1">
          <mxGeometry x="1640" y="285" width="50" height="50" as="geometry" />
        </mxCell>
        <mxCell id="RptCFL0FbpW7rhIRfFGB-11" value="" style="ellipse;html=1;shape=endState;fillColor=#23445D;strokeColor=#23445d;aspect=fixed;" vertex="1" parent="1">
          <mxGeometry x="1640" y="1640" width="50" height="50" as="geometry" />
        </mxCell>
        <mxCell id="RptCFL0FbpW7rhIRfFGB-12" value="&lt;font color=&quot;#413565&quot;&gt;A Published File exists?&lt;/font&gt;" style="strokeWidth=2;html=1;shape=mxgraph.flowchart.decision;whiteSpace=wrap;strokeColor=#10739e;fontFamily=Lato;fontSource=https%3A%2F%2Ffonts.googleapis.com%2Fcss%3Ffamily%3DLato;fillColor=#b1ddf0;aspect=fixed;fontStyle=1" vertex="1" parent="1">
          <mxGeometry x="1590" y="984" width="150" height="150" as="geometry" />
        </mxCell>
        <mxCell id="RptCFL0FbpW7rhIRfFGB-13" value="" style="strokeWidth=2;html=1;shape=mxgraph.flowchart.decision;whiteSpace=wrap;strokeColor=#10739e;fontFamily=Lato;fontSource=https%3A%2F%2Ffonts.googleapis.com%2Fcss%3Ffamily%3DLato;fillColor=#b1ddf0;aspect=fixed;" vertex="1" parent="1">
          <mxGeometry x="1590" y="1327" width="150" height="150" as="geometry" />
        </mxCell>
        <mxCell id="RptCFL0FbpW7rhIRfFGB-14" style="edgeStyle=orthogonalEdgeStyle;rounded=0;orthogonalLoop=1;jettySize=auto;html=1;entryX=0.5;entryY=0;entryDx=0;entryDy=0;entryPerimeter=0;strokeColor=#23445D;strokeWidth=2;fontFamily=Montserrat;fontSource=https%3A%2F%2Ffonts.googleapis.com%2Fcss%3Ffamily%3DMontserrat;fontColor=#413565;fillColor=#bac8d3;endArrow=block;endFill=1;" edge="1" parent="1" source="RptCFL0FbpW7rhIRfFGB-12" target="RptCFL0FbpW7rhIRfFGB-13">
          <mxGeometry relative="1" as="geometry" />
        </mxCell>
        <mxCell id="RptCFL0FbpW7rhIRfFGB-15" value="NO" style="edgeLabel;html=1;align=center;verticalAlign=middle;resizable=0;points=[];fontFamily=Montserrat;fontColor=#413565;fontStyle=1;fontSize=14;" vertex="1" connectable="0" parent="RptCFL0FbpW7rhIRfFGB-14">
          <mxGeometry x="-0.8435" y="-2" relative="1" as="geometry">
            <mxPoint x="2" y="10" as="offset" />
          </mxGeometry>
        </mxCell>
        <mxCell id="RptCFL0FbpW7rhIRfFGB-16" style="edgeStyle=orthogonalEdgeStyle;rounded=0;orthogonalLoop=1;jettySize=auto;html=1;entryX=1;entryY=0.5;entryDx=0;entryDy=0;entryPerimeter=0;strokeColor=#23445D;strokeWidth=2;fontFamily=Montserrat;fontSource=https%3A%2F%2Ffonts.googleapis.com%2Fcss%3Ffamily%3DMontserrat;fontSize=16;fontColor=#6963C5;exitX=0.5;exitY=1;exitDx=0;exitDy=0;endArrow=block;endFill=1;" edge="1" parent="1" source="RptCFL0FbpW7rhIRfFGB-17" target="RptCFL0FbpW7rhIRfFGB-13">
          <mxGeometry relative="1" as="geometry" />
        </mxCell>
        <mxCell id="RptCFL0FbpW7rhIRfFGB-17" value="&lt;font color=&quot;#413565&quot;&gt;Replace the Actual ConfoToolBoxPath, that is currently set at the Asset level, by the existing one at the Shot level&lt;/font&gt;" style="rounded=1;whiteSpace=wrap;html=1;absoluteArcSize=1;arcSize=14;strokeWidth=2;strokeColor=#6963C5;fillColor=#CCCCFF;fontFamily=Lato;fontSource=https%3A%2F%2Ffonts.googleapis.com%2Fcss%3Ffamily%3DLato;fontStyle=1;aspect=fixed;spacing=10;" vertex="1" parent="1">
          <mxGeometry x="1830" y="1180" width="200" height="100" as="geometry" />
        </mxCell>
        <mxCell id="RptCFL0FbpW7rhIRfFGB-18" value="" style="edgeStyle=orthogonalEdgeStyle;rounded=0;orthogonalLoop=1;jettySize=auto;html=1;entryX=0.5;entryY=0;entryDx=0;entryDy=0;strokeColor=#23445D;strokeWidth=2;fontFamily=Montserrat;fontSource=https%3A%2F%2Ffonts.googleapis.com%2Fcss%3Ffamily%3DMontserrat;fontColor=#413565;fillColor=#bac8d3;endArrow=block;endFill=1;" edge="1" parent="1" source="RptCFL0FbpW7rhIRfFGB-12" target="RptCFL0FbpW7rhIRfFGB-17">
          <mxGeometry relative="1" as="geometry">
            <mxPoint x="1724.9999999999995" y="1169.0588235294117" as="sourcePoint" />
            <mxPoint x="1904.9999999999995" y="1374.9999999999995" as="targetPoint" />
          </mxGeometry>
        </mxCell>
        <mxCell id="RptCFL0FbpW7rhIRfFGB-19" value="YES" style="edgeLabel;html=1;align=center;verticalAlign=middle;resizable=0;points=[];fontFamily=Montserrat;fontColor=#413565;fontStyle=1;fontSize=14;spacingTop=0;" vertex="1" connectable="0" parent="RptCFL0FbpW7rhIRfFGB-18">
          <mxGeometry x="-0.6301" y="5" relative="1" as="geometry">
            <mxPoint x="-27" y="5" as="offset" />
          </mxGeometry>
        </mxCell>
        <mxCell id="RptCFL0FbpW7rhIRfFGB-20" value="MIKROS CORE HOOKS" style="text;html=1;align=left;verticalAlign=middle;resizable=0;points=[];autosize=1;strokeColor=none;fillColor=none;fontSize=24;fontFamily=Montserrat;fontColor=#23445D;fontStyle=1" vertex="1" parent="1">
          <mxGeometry x="1705" y="290" width="320" height="40" as="geometry" />
        </mxCell>
        <mxCell id="RptCFL0FbpW7rhIRfFGB-22" value="" style="edgeStyle=orthogonalEdgeStyle;rounded=0;orthogonalLoop=1;jettySize=auto;html=1;strokeColor=#23445D;strokeWidth=2;fontFamily=Montserrat;fontSource=https%3A%2F%2Ffonts.googleapis.com%2Fcss%3Ffamily%3DMontserrat;fontColor=#413565;fillColor=#bac8d3;endArrow=block;endFill=1;entryX=0.5;entryY=0;entryDx=0;entryDy=0;" edge="1" parent="1" source="RptCFL0FbpW7rhIRfFGB-13" target="RptCFL0FbpW7rhIRfFGB-11">
          <mxGeometry relative="1" as="geometry">
            <mxPoint x="1664.9999999999995" y="1374" as="sourcePoint" />
            <mxPoint x="1665" y="1576.9999999999995" as="targetPoint" />
          </mxGeometry>
        </mxCell>
        <mxCell id="RptCFL0FbpW7rhIRfFGB-23" value="&lt;font color=&quot;#413565&quot;&gt;&lt;b&gt;&lt;i&gt;External Process&lt;br&gt;&lt;/i&gt;&lt;/b&gt;&lt;/font&gt;" style="rounded=1;whiteSpace=wrap;html=1;absoluteArcSize=1;arcSize=14;strokeWidth=2;strokeColor=#6963C5;fillColor=#CCCCFF;fontFamily=Lato;fontSource=https%3A%2F%2Ffonts.googleapis.com%2Fcss%3Ffamily%3DLato;fontStyle=0;aspect=fixed;" vertex="1" parent="1">
          <mxGeometry x="1565" y="448" width="200" height="100" as="geometry" />
        </mxCell>
        <mxCell id="RptCFL0FbpW7rhIRfFGB-24" value="" style="edgeStyle=orthogonalEdgeStyle;rounded=0;orthogonalLoop=1;jettySize=auto;html=1;strokeColor=#23445D;strokeWidth=2;fontFamily=Montserrat;fontSource=https%3A%2F%2Ffonts.googleapis.com%2Fcss%3Ffamily%3DMontserrat;fontColor=#413565;fillColor=#bac8d3;endArrow=block;endFill=1;" edge="1" parent="1" source="RptCFL0FbpW7rhIRfFGB-10" target="RptCFL0FbpW7rhIRfFGB-23">
          <mxGeometry relative="1" as="geometry" />
        </mxCell>
        <mxCell id="RptCFL0FbpW7rhIRfFGB-25" value="&lt;font color=&quot;#413565&quot;&gt;Get the last ConfoToolBox published file for the given shot&lt;/font&gt;" style="rounded=1;whiteSpace=wrap;html=1;absoluteArcSize=1;arcSize=14;strokeWidth=2;strokeColor=#6963C5;fillColor=#CCCCFF;fontFamily=Lato;fontSource=https%3A%2F%2Ffonts.googleapis.com%2Fcss%3Ffamily%3DLato;fontStyle=1;aspect=fixed;spacing=10;" vertex="1" parent="1">
          <mxGeometry x="1565" y="837" width="200" height="100" as="geometry" />
        </mxCell>
        <mxCell id="RptCFL0FbpW7rhIRfFGB-26" style="edgeStyle=orthogonalEdgeStyle;rounded=0;orthogonalLoop=1;jettySize=auto;html=1;entryX=0.5;entryY=0;entryDx=0;entryDy=0;entryPerimeter=0;strokeColor=#23445D;strokeWidth=2;fontFamily=Montserrat;fontSource=https%3A%2F%2Ffonts.googleapis.com%2Fcss%3Ffamily%3DMontserrat;fontSize=16;fontColor=#333333;startArrow=none;endArrow=block;endFill=1;" edge="1" parent="1" source="RptCFL0FbpW7rhIRfFGB-25" target="RptCFL0FbpW7rhIRfFGB-12">
          <mxGeometry relative="1" as="geometry" />
        </mxCell>
        <mxCell id="RptCFL0FbpW7rhIRfFGB-28" style="edgeStyle=orthogonalEdgeStyle;rounded=0;orthogonalLoop=1;jettySize=auto;html=1;entryX=0.5;entryY=0;entryDx=0;entryDy=0;strokeColor=#23445D;strokeWidth=2;endArrow=block;endFill=1;" edge="1" parent="1" source="RptCFL0FbpW7rhIRfFGB-29" target="RptCFL0FbpW7rhIRfFGB-25">
          <mxGeometry relative="1" as="geometry" />
        </mxCell>
        <mxCell id="RptCFL0FbpW7rhIRfFGB-29" value="&lt;font color=&quot;#413565&quot;&gt;&lt;b&gt;Build the CustomRender Node&lt;br&gt;&lt;/b&gt;&lt;/font&gt;" style="rounded=1;whiteSpace=wrap;html=1;absoluteArcSize=1;arcSize=14;strokeWidth=2;strokeColor=#6963C5;fillColor=#CCCCFF;fontFamily=Lato;fontSource=https%3A%2F%2Ffonts.googleapis.com%2Fcss%3Ffamily%3DLato;fontStyle=0;aspect=fixed;spacing=10;" vertex="1" parent="1">
          <mxGeometry x="1565" y="590" width="200" height="100" as="geometry" />
        </mxCell>
        <mxCell id="RptCFL0FbpW7rhIRfFGB-30" value="" style="edgeStyle=orthogonalEdgeStyle;rounded=0;orthogonalLoop=1;jettySize=auto;html=1;entryX=0.5;entryY=0;entryDx=0;entryDy=0;endArrow=block;strokeWidth=2;strokeColor=#23445D;endFill=1;" edge="1" parent="1" source="RptCFL0FbpW7rhIRfFGB-23" target="RptCFL0FbpW7rhIRfFGB-29">
          <mxGeometry relative="1" as="geometry">
            <mxPoint x="1665" y="533" as="sourcePoint" />
            <mxPoint x="1665" y="980" as="targetPoint" />
          </mxGeometry>
        </mxCell>
        <mxCell id="RptCFL0FbpW7rhIRfFGB-32" value="&lt;font color=&quot;#413565&quot;&gt;&lt;b&gt;&lt;span&gt;Execute Hook for a given hook name&lt;br&gt;&lt;/span&gt;&lt;/b&gt;&lt;/font&gt;" style="rounded=1;whiteSpace=wrap;html=1;absoluteArcSize=1;arcSize=14;strokeWidth=2;strokeColor=#6963C5;fillColor=#CCCCFF;fontFamily=Lato;fontSource=https%3A%2F%2Ffonts.googleapis.com%2Fcss%3Ffamily%3DLato;fontStyle=0;aspect=fixed;" vertex="1" parent="1">
          <mxGeometry x="2280" y="440" width="200" height="100" as="geometry" />
        </mxCell>
        <mxCell id="RptCFL0FbpW7rhIRfFGB-36" value="&lt;font color=&quot;#413565&quot;&gt;&lt;b&gt;&lt;span&gt;Get directories path from the environment variable: `MIK_HOOK_LOCATION`&amp;nbsp;&lt;br&gt;&lt;/span&gt;&lt;/b&gt;&lt;/font&gt;" style="rounded=1;whiteSpace=wrap;html=1;absoluteArcSize=1;arcSize=14;strokeWidth=2;strokeColor=#6963C5;fillColor=#CCCCFF;fontFamily=Lato;fontSource=https%3A%2F%2Ffonts.googleapis.com%2Fcss%3Ffamily%3DLato;fontStyle=0;aspect=fixed;" vertex="1" parent="1">
          <mxGeometry x="2280" y="630" width="200" height="100" as="geometry" />
        </mxCell>
        <mxCell id="RptCFL0FbpW7rhIRfFGB-37" value="&lt;b style=&quot;color: rgb(65, 53, 101);&quot;&gt;/s/apps/packages/mikrosAnim/foo:&lt;br&gt;&lt;/b&gt;&lt;b style=&quot;color: rgb(65, 53, 101);&quot;&gt;/s/apps/packages/mikrosAnim/bar:&lt;br&gt;...&lt;br&gt;&lt;/b&gt;" style="shape=note;size=20;whiteSpace=wrap;html=1;fontFamily=Lato;fillColor=#fff2cc;strokeColor=#d6b656;rounded=1;arcSize=14;strokeWidth=2;fontSource=https%3A%2F%2Ffonts.googleapis.com%2Fcss%3Ffamily%3DLato;fontStyle=0;spacing=10;" vertex="1" parent="1">
          <mxGeometry x="2025" y="620" width="200" height="120" as="geometry" />
        </mxCell>
        <mxCell id="RptCFL0FbpW7rhIRfFGB-51" style="edgeStyle=orthogonalEdgeStyle;rounded=0;orthogonalLoop=1;jettySize=auto;html=1;entryX=0.5;entryY=0;entryDx=0;entryDy=0;" edge="1" parent="1" source="RptCFL0FbpW7rhIRfFGB-40" target="RptCFL0FbpW7rhIRfFGB-47">
          <mxGeometry relative="1" as="geometry" />
        </mxCell>
        <mxCell id="RptCFL0FbpW7rhIRfFGB-55" style="edgeStyle=orthogonalEdgeStyle;rounded=0;orthogonalLoop=1;jettySize=auto;html=1;entryX=0.5;entryY=0;entryDx=0;entryDy=0;entryPerimeter=0;" edge="1" parent="1" source="RptCFL0FbpW7rhIRfFGB-40" target="RptCFL0FbpW7rhIRfFGB-53">
          <mxGeometry relative="1" as="geometry" />
        </mxCell>
        <mxCell id="RptCFL0FbpW7rhIRfFGB-40" value="&lt;font color=&quot;#413565&quot;&gt;Does the module path exists?&lt;/font&gt;" style="strokeWidth=2;html=1;shape=mxgraph.flowchart.decision;whiteSpace=wrap;strokeColor=#10739e;fontFamily=Lato;fontSource=https%3A%2F%2Ffonts.googleapis.com%2Fcss%3Ffamily%3DLato;fillColor=#b1ddf0;aspect=fixed;fontStyle=1" vertex="1" parent="1">
          <mxGeometry x="2305" y="1145" width="150" height="150" as="geometry" />
        </mxCell>
        <mxCell id="RptCFL0FbpW7rhIRfFGB-43" value="&lt;font color=&quot;#413565&quot;&gt;&lt;b&gt;Format a full path from the given directory and the given hook name in addition with the .py extension&lt;/b&gt;&lt;br&gt;&lt;/font&gt;" style="rounded=1;whiteSpace=wrap;html=1;absoluteArcSize=1;arcSize=14;strokeWidth=2;strokeColor=#6963C5;fillColor=#CCCCFF;fontFamily=Lato;fontSource=https%3A%2F%2Ffonts.googleapis.com%2Fcss%3Ffamily%3DLato;fontStyle=0;aspect=fixed;" vertex="1" parent="1">
          <mxGeometry x="2280" y="967" width="200" height="100" as="geometry" />
        </mxCell>
        <mxCell id="RptCFL0FbpW7rhIRfFGB-44" value="&lt;font color=&quot;#413565&quot;&gt;&lt;b&gt;&lt;span&gt;Next directory from the list&lt;br&gt;&lt;/span&gt;&lt;/b&gt;&lt;/font&gt;" style="rounded=1;whiteSpace=wrap;html=1;absoluteArcSize=1;arcSize=14;strokeWidth=2;strokeColor=#6963C5;fillColor=#CCCCFF;fontFamily=Lato;fontSource=https%3A%2F%2Ffonts.googleapis.com%2Fcss%3Ffamily%3DLato;fontStyle=0;aspect=fixed;" vertex="1" parent="1">
          <mxGeometry x="2280" y="800" width="200" height="100" as="geometry" />
        </mxCell>
        <mxCell id="RptCFL0FbpW7rhIRfFGB-54" style="edgeStyle=orthogonalEdgeStyle;rounded=0;orthogonalLoop=1;jettySize=auto;html=1;entryX=1;entryY=0.5;entryDx=0;entryDy=0;entryPerimeter=0;exitX=0.5;exitY=1;exitDx=0;exitDy=0;" edge="1" parent="1" source="RptCFL0FbpW7rhIRfFGB-47" target="RptCFL0FbpW7rhIRfFGB-53">
          <mxGeometry relative="1" as="geometry" />
        </mxCell>
        <mxCell id="RptCFL0FbpW7rhIRfFGB-47" value="&lt;font color=&quot;#413565&quot;&gt;&lt;b&gt;Store the Hook Module&lt;/b&gt;&lt;br&gt;&lt;/font&gt;" style="rounded=1;whiteSpace=wrap;html=1;absoluteArcSize=1;arcSize=14;strokeWidth=2;strokeColor=#6963C5;fillColor=#CCCCFF;fontFamily=Lato;fontSource=https%3A%2F%2Ffonts.googleapis.com%2Fcss%3Ffamily%3DLato;fontStyle=0;aspect=fixed;" vertex="1" parent="1">
          <mxGeometry x="2540" y="1355" width="200" height="100" as="geometry" />
        </mxCell>
        <mxCell id="RptCFL0FbpW7rhIRfFGB-57" style="edgeStyle=orthogonalEdgeStyle;rounded=0;orthogonalLoop=1;jettySize=auto;html=1;entryX=1;entryY=0.5;entryDx=0;entryDy=0;" edge="1" parent="1" source="RptCFL0FbpW7rhIRfFGB-48" target="RptCFL0FbpW7rhIRfFGB-44">
          <mxGeometry relative="1" as="geometry">
            <Array as="points">
              <mxPoint x="2860" y="1855" />
              <mxPoint x="2860" y="850" />
            </Array>
          </mxGeometry>
        </mxCell>
        <mxCell id="RptCFL0FbpW7rhIRfFGB-48" value="&lt;font color=&quot;#413565&quot;&gt;Did we finish to iterate though Directories ?&lt;/font&gt;" style="strokeWidth=2;html=1;shape=mxgraph.flowchart.decision;whiteSpace=wrap;strokeColor=#10739e;fontFamily=Lato;fontSource=https%3A%2F%2Ffonts.googleapis.com%2Fcss%3Ffamily%3DLato;fillColor=#b1ddf0;aspect=fixed;fontStyle=1" vertex="1" parent="1">
          <mxGeometry x="2305" y="1780" width="150" height="150" as="geometry" />
        </mxCell>
        <mxCell id="RptCFL0FbpW7rhIRfFGB-56" style="edgeStyle=orthogonalEdgeStyle;rounded=0;orthogonalLoop=1;jettySize=auto;html=1;entryX=0.5;entryY=0;entryDx=0;entryDy=0;entryPerimeter=0;" edge="1" parent="1" source="RptCFL0FbpW7rhIRfFGB-53" target="RptCFL0FbpW7rhIRfFGB-48">
          <mxGeometry relative="1" as="geometry" />
        </mxCell>
        <mxCell id="RptCFL0FbpW7rhIRfFGB-53" value="" style="strokeWidth=2;html=1;shape=mxgraph.flowchart.decision;whiteSpace=wrap;strokeColor=#10739e;fontFamily=Lato;fontSource=https%3A%2F%2Ffonts.googleapis.com%2Fcss%3Ffamily%3DLato;fillColor=#b1ddf0;aspect=fixed;fontStyle=1" vertex="1" parent="1">
          <mxGeometry x="2320" y="1540" width="120" height="120" as="geometry" />
        </mxCell>
        <mxCell id="RptCFL0FbpW7rhIRfFGB-58" value="&lt;font color=&quot;#413565&quot;&gt;Is there at least one Hook that has been found?&lt;/font&gt;" style="strokeWidth=2;html=1;shape=mxgraph.flowchart.decision;whiteSpace=wrap;strokeColor=#10739e;fontFamily=Lato;fontSource=https%3A%2F%2Ffonts.googleapis.com%2Fcss%3Ffamily%3DLato;fillColor=#b1ddf0;aspect=fixed;fontStyle=1;spacing=10;" vertex="1" parent="1">
          <mxGeometry x="2305" y="2060" width="150" height="150" as="geometry" />
        </mxCell>
        <mxCell id="RptCFL0FbpW7rhIRfFGB-59" value="MikNotFoundError" style="html=1;shape=mxgraph.infographic.ribbonSimple;notch1=20;notch2=0;align=center;verticalAlign=middle;fontSize=14;fontStyle=0;fillColor=#fad9d5;flipH=0;spacingRight=0;spacingLeft=14;strokeColor=#ae4132;strokeWidth=2;aspect=fixed;" vertex="1" parent="1">
          <mxGeometry x="2680" y="2111.47" width="200" height="47.06" as="geometry" />
        </mxCell>
      </root>
    </mxGraphModel>
  </diagram>
</mxfile>
